<svg xmlns="http://www.w3.org/2000/svg" viewBox="0 0 400 400" role="img" aria-labelledby="t">
  <title id="t">Orange</title>
  <rect width="400" height="400" fill="#f7f5ee"/>
  <ellipse cx="200" cy="322" rx="92" ry="14" fill="#14301f" opacity="0.08"/>
  <g transform="translate(80 70) scale(1.2)">
    <circle cx="100" cy="112" r="68" fill="#ee8a2e"/>
    <circle cx="76" cy="88" r="16" fill="rgba(255,255,255,0.35)"/>
    <g fill="#d9751e" opacity="0.45"><circle cx="145.0" cy="112.0" r="3"/><circle cx="140.5" cy="131.5" r="3"/><circle cx="128.1" cy="147.2" r="3"/><circle cx="110.0" cy="155.9" r="3"/><circle cx="90.0" cy="155.9" r="3"/><circle cx="71.9" cy="147.2" r="3"/><circle cx="59.5" cy="131.5" r="3"/><circle cx="55.0" cy="112.0" r="3"/><circle cx="59.5" cy="92.5" r="3"/><circle cx="71.9" cy="76.8" r="3"/><circle cx="90.0" cy="68.1" r="3"/><circle cx="110.0" cy="68.1" r="3"/><circle cx="128.1" cy="76.8" r="3"/><circle cx="140.5" cy="92.5" r="3"/></g>
    <path d="M100 44 C112 22 136 24 142 32 C132 46 112 52 100 44Z" fill="#3f8f5a"/></g>
</svg>